<svg xmlns="http://www.w3.org/2000/svg" width="120.815" height="30">
    <defs>
        <clipPath id="a">
            <path d="M273.066 270.26a3.794 3.794 0 01.677-2.631 14.994 14.994 0 0123.481-1.289 13.365 13.365 0 00-5.181-.908c-4.861 0-6.385 2.607-6.385 4.816s1.184 3.782 4.042 5.169 5.542 2.193 7.415 3.851a4.843 4.843 0 011.808 3.032 3.794 3.794 0 01-.677 2.631 14.994 14.994 0 01-23.481 1.289 13.365 13.365 0 005.181.908c4.861 0 6.385-2.607 6.385-4.816s-1.184-3.782-4.042-5.169-5.542-2.193-7.415-3.851a4.843 4.843 0 01-1.808-3.032zm53.57-1.241a9.944 9.944 0 00-7.5-2.988c-3.795 0-7.52 1.723-7.52 5.947a5.7 5.7 0 004.723 5.822c1.253.292 2.222.519 3.276.742 1.516.328 3.223.855 3.223 2.777 0 1.638-1.642 2.457-3.539 2.457a8.25 8.25 0 01-6.426-2.826l-2.514 2.761c1.078 1.123 3.146 3.628 8.858 3.628 4.751 0 7.638-2.218 7.638-6.053a6.285 6.285 0 00-5.181-6.069c-1.216-.255-1.605-.349-2.947-.641-.795-.174-3.162-.572-3.162-2.826 0-2.4 5.132-3.349 8.623-.016l2.453-2.716zm60.9 15.58a8.007 8.007 0 01-6 2.639c-.892 0-7.131.008-7.131-6.349 0-6.162 6.795-6.32 13.208-6.264v-.231c0-2.712-1.455-4.65-4.561-4.65a6.8 6.8 0 00-5.428 2.777l-2.518-2.785c1.455-1.711 3.949-3.6 8.489-3.6 5.943 0 8.214 4.382 8.214 7.609v13.03h-4.2V284.6h-.077zm-44.291 0a8.007 8.007 0 01-6 2.639c-.892 0-7.131.008-7.131-6.349 0-6.162 6.795-6.32 13.208-6.264v-.231c0-2.712-1.455-4.65-4.561-4.65a6.8 6.8 0 00-5.428 2.777l-2.518-2.785c1.455-1.711 3.949-3.6 8.489-3.6 5.943 0 8.214 4.382 8.214 7.609v13.03h-4.2V284.6h-.077zm13.776 2.169h-4.2v-20.185h4.2v2.817h.073s1.212-3.263 6.251-3.263 7.119 4.038 7.119 7.95v12.685h-4.2v-11.396c0-1.691-.195-5.542-3.612-5.542-2.554 0-4.508 1.391-5.331 4.573a9.323 9.323 0 00-.292 2.319c-.012 2.416-.012 10.009-.012 10.042zm-85.695-13.634a7.339 7.339 0 002.124 2.132c3.154 2.1 5.773 2.627 7.8 3.734s2.931 1.63 2.931 3.507-2.214 2.5-4.512 2.5a11.41 11.41 0 01-5.846-1.642 5.293 5.293 0 01-2.282-3.077 15.02 15.02 0 01-.543-4.005 15.45 15.45 0 01.332-3.146zm116.283 4.466h-.02c-3.531 0-9.02-.405-9.02 3.377 0 2.505 2.388 3.191 4.018 3.191a4.956 4.956 0 005.019-4.135V277.6zm-44.295 0h-.02c-3.531 0-9.02-.405-9.02 3.377 0 2.505 2.388 3.191 4.018 3.191a4.956 4.956 0 005.019-4.135V277.6zm-42.649 1.824a7.339 7.339 0 00-2.124-2.132c-3.15-2.1-5.773-2.627-7.8-3.734s-2.931-1.63-2.931-3.507 2.214-2.5 4.512-2.5a11.41 11.41 0 015.846 1.642 5.293 5.293 0 012.282 3.077 15.019 15.019 0 01.543 4.005 15.454 15.454 0 01-.332 3.146z" transform="translate(-270.99 -261.28)" />
        </clipPath>
        <style>.a{fill:#d72344 !important}</style>
    </defs>
    <path class="a" d="M2.076 8.98a3.794 3.794 0 01.677-2.631A14.994 14.994 0 0126.234 5.06a13.365 13.365 0 00-5.181-.908c-4.861 0-6.385 2.607-6.385 4.816s1.184 3.782 4.042 5.169 5.542 2.193 7.415 3.851a4.843 4.843 0 011.808 3.032 3.794 3.794 0 01-.677 2.631A14.994 14.994 0 013.775 24.94a13.365 13.365 0 005.181.908c4.861 0 6.385-2.607 6.385-4.816s-1.184-3.782-4.042-5.169-5.542-2.193-7.415-3.851A4.843 4.843 0 012.076 8.98zm53.57-1.241a9.944 9.944 0 00-7.5-2.988c-3.795 0-7.52 1.723-7.52 5.947a5.7 5.7 0 004.723 5.822c1.253.292 2.222.519 3.276.742 1.516.328 3.223.855 3.223 2.777 0 1.638-1.642 2.457-3.539 2.457a8.25 8.25 0 01-6.426-2.826l-2.514 2.761c1.078 1.123 3.146 3.628 8.858 3.628 4.751 0 7.638-2.218 7.638-6.053a6.285 6.285 0 00-5.181-6.069c-1.216-.255-1.605-.349-2.947-.641-.795-.174-3.162-.572-3.162-2.826 0-2.4 5.132-3.349 8.623-.016l2.453-2.716zm60.9 15.58a8.007 8.007 0 01-6 2.639c-.892 0-7.131.008-7.131-6.349 0-6.162 6.795-6.32 13.208-6.264v-.231c0-2.712-1.455-4.65-4.561-4.65a6.8 6.8 0 00-5.428 2.777l-2.518-2.785c1.455-1.711 3.949-3.6 8.489-3.6 5.943 0 8.214 4.382 8.214 7.609v13.03h-4.2V23.32h-.077zm-44.291 0a8.007 8.007 0 01-6 2.639c-.892 0-7.131.008-7.131-6.349 0-6.162 6.795-6.32 13.208-6.264v-.231c0-2.712-1.455-4.65-4.561-4.65a6.8 6.8 0 00-5.428 2.777l-2.518-2.785c1.455-1.711 3.949-3.6 8.489-3.6 5.943 0 8.214 4.382 8.214 7.609v13.03h-4.2V23.32h-.077zm13.776 2.169h-4.2V5.303h4.2V8.12h.073s1.212-3.263 6.251-3.263 7.119 4.038 7.119 7.95v12.685h-4.2V14.096c0-1.691-.195-5.542-3.612-5.542-2.554 0-4.508 1.391-5.331 4.573a9.323 9.323 0 00-.292 2.319c-.012 2.416-.012 10.009-.012 10.042zM.336 11.854a7.339 7.339 0 002.124 2.132c3.154 2.1 5.773 2.627 7.8 3.734s2.931 1.63 2.931 3.507-2.214 2.5-4.512 2.5a11.41 11.41 0 01-5.846-1.642 5.293 5.293 0 01-2.282-3.077 15.02 15.02 0 01-.543-4.005 15.45 15.45 0 01.332-3.146zm116.283 4.466h-.02c-3.531 0-9.02-.405-9.02 3.377 0 2.505 2.388 3.191 4.018 3.191a4.956 4.956 0 005.019-4.135V16.32zm-44.295 0h-.02c-3.531 0-9.02-.405-9.02 3.377 0 2.505 2.388 3.191 4.018 3.191a4.956 4.956 0 005.019-4.135V16.32zm-42.649 1.824a7.339 7.339 0 00-2.124-2.132c-3.15-2.1-5.773-2.627-7.8-3.734s-2.931-1.63-2.931-3.507 2.214-2.5 4.512-2.5a11.41 11.41 0 015.846 1.642 5.293 5.293 0 012.282 3.077 15.019 15.019 0 01.543 4.005 15.454 15.454 0 01-.332 3.146z" />
    <g clip-path="url(#a)">
        <path class="a" d="M-2.023-2.027h124.865v34.054H-2.023z" />
    </g>
</svg>